<svg width="53" height="62" viewBox="0 0 53 62" version="1.1" xmlns="http://www.w3.org/2000/svg" xmlns:xlink="http://www.w3.org/1999/xlink">
<title>Group</title>
<desc>Created using Figma</desc>
<g id="Canvas" transform="translate(-1694 -3468)">
<g id="Group">
<g id="Group">
<g id="Vector">
<use xlink:href="#path0_fill" transform="translate(1694 3469.04)" fill="#E02E26"/>
</g>
<g id="Vector">
<use xlink:href="#path1_fill" transform="translate(1710.42 3507.6)" fill="#FFFFFF"/>
</g>
<g id="Vector">
<use xlink:href="#path2_fill" transform="translate(1711.61 3468)" fill="#E02E26"/>
</g>
</g>
</g>
</g>
<defs>
<path id="path0_fill" d="M 13.6976 -1.55784e-08L 0 6.88528L 2.71715 10.2013L 2.71715 41.72L 13.6976 30.4896L 13.6976 -1.55784e-08Z"/>
<path id="path1_fill" d="M 9.98952 9.97263C 9.98952 11.7042 8.84672 12.4392 7.57605 12.4392C 5.88982 12.4392 5.49823 11.3856 5.49823 10.2503L 5.49823 0.343039L 5.42631 0.343039L -4.87769e-07 5.88883L -4.87769e-07 11.549C -4.87769e-07 14.669 1.63029 17.4133 5.40233 17.4133C 7.06459 17.4133 8.75881 16.7027 9.98952 15.5348L 9.98952 17.0458L 15.4878 17.0458L 15.4878 0.343039L 9.98952 0.343039L 9.98952 9.97263ZM 28.9296 -9.9702e-07C 27.0596 -9.9702e-07 25.5172 0.677911 24.2785 1.91122L 24.2785 0.343039L 18.7563 0.343039L 18.7563 22.4037L 24.2785 22.4037L 24.2785 15.5184C 25.5172 16.6945 27.0596 17.397 28.9296 17.397C 33.4929 17.397 36.3299 13.6644 36.3299 8.69848C 36.3299 3.79793 33.4849 -9.9702e-07 28.9296 -9.9702e-07ZM 27.4512 12.5944C 25.3414 12.5944 24.2785 10.8057 24.2785 8.67398C 24.2785 6.54224 25.3094 4.78621 27.4512 4.78621C 29.537 4.78621 30.504 6.57491 30.504 8.67398C 30.496 10.7404 29.537 12.5944 27.4512 12.5944Z"/>
<path id="path2_fill" d="M 17.6934 0C 7.91969 0 -4.87769e-07 8.09408 -4.87769e-07 18.083C -4.87769e-07 20.8437 0.623346 23.4491 1.70221 25.7851L 1.88602 25.9811L 12.8185 14.8078L 9.38215 11.2958L 24.3425 11.2958L 24.3425 26.5855L 20.9061 23.0734L 9.90161 34.3039C 12.2511 35.4882 14.8884 36.1661 17.6934 36.1661C 27.4672 36.1661 35.3869 28.072 35.3869 18.083C 35.3869 8.09408 27.4672 0 17.6934 0Z"/>
</defs>
</svg>
