<svg xmlns="http://www.w3.org/2000/svg" width="235.838" height="269.941"><path fill="#DF2B26" d="M60.933 4.502L0 34.499l12.081 14.422V186.13l48.852-48.868z"/><path d="M117.498 215.8c0 7.527-5.092 10.752-10.75 10.752-7.508 0-9.263-4.576-9.263-9.544v-43.127h-.319l-24.134 24.133v24.633c0 13.574 7.256 25.528 24.053 25.528 7.39 0 14.918-3.086 20.413-8.192v6.582h24.453v-72.684h-24.453V215.8zm84.252-43.395c-8.327 0-15.17 2.95-20.689 8.327v-6.852h-24.578v96.061h24.578v-29.959c5.52 5.106 12.362 8.192 20.689 8.192 20.288 0 32.928-16.252 32.928-37.885 0-21.359-12.64-37.884-32.928-37.884zm-6.58 54.812c-9.398 0-14.109-7.795-14.109-17.061 0-9.267 4.574-16.929 14.109-16.929 9.278 0 13.569 7.785 13.569 16.929 0 9.002-4.291 17.061-13.569 17.061z" fill="#fff"/><path fill="#DF2B26" d="M157.093 0c-43.492.005-78.737 35.251-78.737 78.736 0 12.008 2.771 23.353 7.57 33.528l.825.853 48.644-48.642-15.297-15.297h66.562v66.557l-15.296-15.297-48.922 48.923c10.468 5.142 22.203 8.117 34.656 8.117 43.484 0 78.74-35.25 78.74-78.742C235.838 35.251 200.582 0 157.093 0z"/></svg>