<svg width="50" height="38" viewBox="0 0 50 38" xmlns="http://www.w3.org/2000/svg"><title>Layout Grid</title><g fill="#000" fill-rule="evenodd"><path d="M0 0v37.5h50V0H0zm49 36.5H1V1h48v35.5z"/><path d="M14.375 5h-8.75v8.75h8.75V5zm-1 7.75h-6.75V6h6.75v6.75zM14.375 15h-8.75v6.25h8.75V15zm-1 5.25h-6.75V16h6.75v4.25zM24.375 18.75h-8.75V32.5h8.75V18.75zm-1 12.75h-6.75V19.75h6.75V31.5zM34.375 12.5h-8.75V20h8.75v-7.5zm-1 6.5h-6.75v-5.5h6.75V19zM14.375 22.5h-8.75v10h8.75v-10zm-1 9h-6.75v-8h6.75v8zM34.375 21.25h-8.75V32.5h8.75V21.25zm-1 10.25h-6.75v-9.25h6.75v9.25zM24.375 5h-8.75v12.5h8.75V5zm-1 11.5h-6.75V6h6.75v10.5zM44.375 5h-8.75v27.5h8.75V5zm-1 26.5h-6.75V6h6.75v25.5zM34.375 5h-8.75v6.25h8.75V5zm-1 5.25h-6.75V6h6.75v4.25z"/></g></svg>