<svg width="50" height="38" viewBox="0 0 50 38" xmlns="http://www.w3.org/2000/svg"><title>Navigation Tree</title><g fill="#000" fill-rule="evenodd"><path d="M0 0v37.5h50V0H0zm49 36.5H1V1h48v35.5z"/><path d="M8.75 32.5h6.5c.69 0 1.25-.56 1.25-1.25v-6.5c0-.69-.56-1.25-1.25-1.25H12.5V22c0-.138.112-.25.25-.25H24.5v1.75h-2.75c-.69 0-1.25.56-1.25 1.25v6.5c0 .69.56 1.25 1.25 1.25h6.5c.69 0 1.25-.56 1.25-1.25v-6.5c0-.69-.56-1.25-1.25-1.25H25.5v-1.75h11.75c.138 0 .25.112.25.25v1.5h-2.75c-.69 0-1.25.56-1.25 1.25v6.5c0 .69.56 1.25 1.25 1.25h6.5c.69 0 1.25-.56 1.25-1.25v-6.5c0-.69-.56-1.25-1.25-1.25H38.5l.005-1.758c0-.547-.443-.992-.99-.992H25.5V19h2.75c.69 0 1.25-.56 1.25-1.25v-6.5c0-.69-.56-1.25-1.25-1.25h-6.5c-.69 0-1.25.56-1.25 1.25v6.5c0 .69.56 1.25 1.25 1.25h2.75v1.75H12.49c-.547 0-.99.443-.99.99v1.76H8.75c-.69 0-1.25.56-1.25 1.25v6.5c0 .69.56 1.25 1.25 1.25zm19.75-7.75v6.5c0 .138-.112.25-.25.25h-6.5c-.138 0-.25-.112-.25-.25v-6.5c0-.138.112-.25.25-.25h6.5c.138 0 .25.112.25.25zm13 0v6.5c0 .138-.112.25-.25.25h-6.5c-.138 0-.25-.112-.25-.25v-6.5c0-.138.112-.25.25-.25h6.5c.138 0 .25.112.25.25zm-20-7v-6.5c0-.138.112-.25.25-.25h6.5c.138 0 .25.112.25.25v6.5c0 .138-.112.25-.25.25h-6.5c-.138 0-.25-.112-.25-.25zm-13 7c0-.138.112-.25.25-.25h6.5c.138 0 .25.112.25.25v6.5c0 .138-.112.25-.25.25h-6.5c-.138 0-.25-.112-.25-.25v-6.5zM16.25 5.25h17.5v1h-17.5z"/></g></svg>