<svg width="50" height="38" viewBox="0 0 50 38" xmlns="http://www.w3.org/2000/svg"><title>User Interface</title><g fill="#000" fill-rule="evenodd"><path d="M0 0v37.5h50V0H0zm49 36.5H1V11.25h48V36.5zm0-26.25H1V1h48v9.25z"/><path d="M12.5 17.625h6.25v1H12.5zM12.5 22.625h6.25v1H12.5zM12.5 27.625h6.25v1H12.5zM10 27.625h1v1h-1zM10 22.625h1v1h-1zM10 17.625h1v1h-1zM8.75 6.5h20v1h-20zM8.75 4h32.5v1H8.75zM33.75 20c.862 0 1.587-.582 1.806-1.375H40v-1h-4.444c-.22-.793-.944-1.375-1.806-1.375-.862 0-1.587.582-1.805 1.375H21.25v1h10.695c.218.793.943 1.375 1.805 1.375zm0-2.75c.483 0 .875.392.875.875s-.392.875-.875.875-.875-.392-.875-.875.392-.875.875-.875zM27.5 25c.862 0 1.587-.582 1.805-1.375H40v-1H29.305c-.218-.793-.943-1.375-1.805-1.375s-1.587.582-1.805 1.375H21.25v1h4.445c.218.793.943 1.375 1.805 1.375zm0-2.75c.483 0 .875.392.875.875S27.983 24 27.5 24s-.875-.392-.875-.875.392-.875.875-.875zM35 30c.862 0 1.587-.582 1.806-1.375H40v-1h-3.194c-.22-.793-.944-1.375-1.806-1.375-.862 0-1.587.582-1.806 1.375H21.25v1h11.944c.22.793.944 1.375 1.806 1.375zm0-2.75c.483 0 .875.392.875.875S35.483 29 35 29s-.875-.392-.875-.875.392-.875.875-.875z"/></g></svg>