<svg xmlns="http://www.w3.org/2000/svg" viewBox="0 0 891 573"><path d="M716.909-44.932H783v-64.794h-66.091v64.794zm87-85.247H841v-36.36h-37.091v36.36zM416.44 466.352c5.705 0 10.316 4.425 10.465 9.95l.004.277v85.218c0 5.56-4.517 10.076-10.185 10.223l-.284.004h-87c-5.675 0-10.284-4.423-10.436-9.945l-.004-.282V476.58c0-5.56 4.515-10.074 10.152-10.223l.288-.004h87zM406 486.776h-66.091v64.795H406v-64.795zm445.44-77.236c5.705 0 10.316 4.424 10.465 9.949l.004.277v113.625c0 5.56-4.517 10.076-10.185 10.223l-.284.003h-116c-5.675 0-10.284-4.422-10.436-9.944l-.004-.282V419.766c0-5.559 4.515-10.073 10.152-10.222l.288-.004h116zM841 429.992h-95.091v93.201H841v-93.2zM97.44 182.318c5.705 0 10.316 4.425 10.465 9.95l.004.276v46.558H271.44c5.705 0 10.316 4.425 10.465 9.95l.004.277v170.437c0 5.56-4.517 10.076-10.185 10.223l-.284.003h-174c-5.675 0-10.284-4.422-10.436-9.944l-.004-.282V259.555H39.44c-5.675 0-10.284-4.422-10.436-9.945L29 249.33v-56.785c0-5.558 4.515-10.073 10.152-10.222l.288-.004h58zM261 259.555H107.909V409.54H261V259.555zm416.44 7.954c5.705 0 10.316 4.424 10.465 9.949l.004.277V391.36c0 5.56-4.517 10.076-10.185 10.222l-.284.004h-116c-5.675 0-10.284-4.422-10.436-9.944l-.004-.282V277.735c0-5.559 4.515-10.074 10.152-10.223l.288-.003h116zM667 287.96h-95.091v93.2H667v-93.2zM532.44 125.477c5.705 0 10.316 4.425 10.465 9.95l.004.277v85.218c0 5.56-4.517 10.076-10.185 10.223l-.284.004h-76.531v46.586c0 5.56-4.517 10.076-10.185 10.222l-.284.004h-58c-5.675 0-10.284-4.422-10.436-9.944l-.004-.282V220.95c0-5.559 4.515-10.074 10.152-10.223l.288-.004H435v-75.02c0-5.56 4.515-10.074 10.152-10.223l.288-.004h87zm261 56.813h87c5.705 0 10.316 4.424 10.465 9.949l.004.277v85.219c0 5.56-4.517 10.076-10.185 10.222l-.284.004h-87c-5.675 0-10.284-4.422-10.436-9.944l-.004-.282v-85.219c0-5.559 4.515-10.073 10.152-10.222l.288-.004h87zM435 231.149h-37.091v36.36H435v-36.36zm435-28.407h-66.091v64.767H870v-64.767zm-783 0H49.909v36.36H87v-36.36zm435-56.812h-66.091v64.794H522V145.93zm213.44-77.237c5.705 0 10.316 4.425 10.465 9.95l.004.276v56.785c0 5.56-4.517 10.076-10.185 10.222l-.284.004h-58c-5.675 0-10.284-4.422-10.436-9.945l-.004-.281V78.919c0-5.558 4.515-10.073 10.152-10.222l.288-.004h58zm-580-170.437c5.8 0 10.469 4.573 10.469 10.226v56.784c0 5.653-4.669 10.226-10.469 10.226h-47.531V40.26h76.531c5.8 0 10.469 4.573 10.469 10.226v85.219c0 5.652-4.669 10.226-10.469 10.226h-87c-5.771 0-10.44-4.574-10.44-10.226V60.71H10.44C4.669 60.711 0 56.138 0 50.485v-85.219C0-40.387 4.669-44.96 10.44-44.96H87v-46.558c0-5.653 4.669-10.226 10.44-10.226zM725 89.117h-37.091v36.36H725v-36.36zM174 60.683h-66.091v64.794H174V60.683zm387.44-219.268c5.705 0 10.316 4.424 10.465 9.949l.004.277V22.079c0 5.56-4.517 10.076-10.185 10.222l-.284.004H397.909V78.89c0 5.56-4.517 10.076-10.185 10.223l-.284.003h-58c-5.675 0-10.284-4.422-10.436-9.944L319 78.89V22.107c0-5.559 4.515-10.074 10.152-10.223l.288-.003H377v-160.24c0-5.559 4.515-10.073 10.152-10.222l.288-.004h174zM377 32.305h-37.091v36.36H377v-36.36zM87-24.508H20.909v64.795H87v-64.795zm464-113.625H397.909V11.852H551v-149.985zm300.44-48.83c5.705 0 10.316 4.425 10.465 9.95l.004.276v56.784c0 5.56-4.517 10.076-10.185 10.223l-.284.004h-47.531v74.992c0 5.56-4.517 10.076-10.185 10.223l-.284.003h-87c-5.675 0-10.284-4.422-10.436-9.944l-.004-.282v-85.219c0-5.558 4.515-10.073 10.152-10.222l.288-.004H783v-46.558c0-5.558 4.515-10.073 10.152-10.222l.288-.004h58zM145-81.32h-37.091v36.36H145v-36.36zm184.44-162.512c5.705 0 10.316 4.424 10.465 9.949l.004.277v113.653c0 5.56-4.517 10.076-10.185 10.223l-.284.004h-116c-5.675 0-10.284-4.423-10.436-9.945l-.004-.282v-113.653c0-5.559 4.515-10.074 10.152-10.223l.288-.003h116zM319-223.38h-95.091v93.201H319v-93.2zm271.44-77.208c5.705 0 10.316 4.425 10.465 9.95l.004.276v56.784c0 5.56-4.517 10.076-10.185 10.223l-.284.004h-58c-5.675 0-10.284-4.423-10.436-9.945l-.004-.282v-56.784c0-5.558 4.515-10.073 10.152-10.222l.288-.004h58zM580-280.164h-37.091v36.36H580v-36.36z" fill="#D5D9E0" fill-rule="evenodd" opacity=".201"/></svg>
