<svg xmlns="http://www.w3.org/2000/svg" xmlns:xlink="http://www.w3.org/1999/xlink" viewBox="0 0 207 207"><defs/><path fill="#697077" fill-rule="evenodd" d="M186.552494,13.912675 L205.551681,46.815175 L167.559994,46.815175 L186.552494,13.912675 Z M111.403903,168.249096 L111.495338,168.393256 L134.660838,208.518256 C135.088838,209.260569 135.088838,210.183444 134.65415,210.925756 C134.254683,211.618581 133.534811,212.066733 132.744644,212.123407 L132.574338,212.129506 L86.23665,212.129506 C85.38065,212.129506 84.5848375,211.668069 84.15015,210.925756 C83.7527214,210.236466 83.7243337,209.391487 84.0703411,208.679955 L84.1568375,208.518256 L107.322338,168.393256 C108.156269,166.951654 110.471236,166.903601 111.403903,168.249096 Z M55.9081688,160.5 C57.1857488,160.5 58.2291272,161.492275 58.3105533,162.749075 L58.3156688,162.9075 L58.3156688,209.72 C58.3156688,210.99758 57.3233936,212.040958 56.0665938,212.122385 L55.9081688,212.1275 L9.09566875,212.1275 C7.81808875,212.1275 6.77471035,211.135225 6.69328421,209.878425 L6.68816875,209.72 L6.68816875,162.9075 C6.68816875,161.62992 7.68044395,160.586542 8.93724369,160.505115 L9.09566875,160.5 L55.9081688,160.5 Z M183.10049,207.07544 L183.262244,207.09315 L182.8535,210.5055 L183.054931,209.498644 L182.6875,211.8715 L182.8525,210.5125 L182.586806,211.861337 C181.324262,211.68189 180.430227,210.556602 180.522721,209.303615 L180.540431,209.139525 C180.726288,207.876981 181.864127,206.982946 183.10049,207.07544 Z M198.227531,206.651106 C198.742469,207.821419 198.307781,209.172294 197.164219,209.740731 C197.090656,209.780856 196.903406,209.867794 196.829844,209.894544 C196.542281,210.001544 196.248031,210.055044 195.960469,210.055044 C194.997469,210.055044 194.087969,209.466544 193.713469,208.510231 C193.238656,207.273044 193.853906,205.875356 195.097781,205.400544 C196.301531,204.945794 197.712594,205.474106 198.227531,206.651106 Z M109.408838,174.412006 L90.40965,207.314506 L128.401338,207.314506 L109.408838,174.412006 Z M53.5006688,165.315 L11.5031688,165.315 L11.5031688,207.3125 L53.5006688,207.3125 L53.5006688,165.315 Z M172.378338,202.036062 C173.3614,202.9255 173.588775,204.570625 172.706025,205.560375 C172.197775,206.115437 171.5424,206.423062 170.887025,206.423062 C170.435247,206.423062 169.988753,206.280396 169.594512,205.976275 L169.449213,205.854625 L171.0609,204.069062 L169.435838,205.847937 C168.479525,204.991937 168.319025,203.507312 169.121525,202.504187 C169.924025,201.50775 171.341775,201.280375 172.378338,202.036062 Z M207.297119,196.985662 C208.407244,197.707912 208.761681,199.125662 208.052806,200.242475 C208.039431,200.25585 207.959181,200.382912 207.952494,200.396287 C207.484369,201.091787 206.728681,201.466287 205.946244,201.466287 C205.484806,201.466287 205.023369,201.332537 204.615431,201.05835 C203.505306,200.329412 203.211056,198.831412 203.946681,197.721287 C204.682306,196.631225 206.200369,196.2701 207.297119,196.985662 Z M166.145588,192.190725 C166.533463,193.46135 165.84465,194.872412 164.574025,195.266975 C164.326588,195.340537 164.072463,195.380662 163.831713,195.380662 C162.881301,195.380662 162.007899,194.829742 161.64639,193.91189 L161.584713,193.735537 L161.544588,193.608475 C161.156713,192.33785 161.865588,190.993662 163.136213,190.5991 C164.386775,190.211225 165.751025,190.9201 166.145588,192.190725 Z M209.715988,183.699606 C210.991349,183.699606 212.033322,184.633163 212.117939,185.876369 L212.123488,186.040231 L212.123488,186.448169 C212.123488,187.778981 211.0468,188.855669 209.722675,188.855669 C208.445095,188.855669 207.401717,187.863394 207.32029,186.606594 L207.315175,186.448169 L207.315175,186.341169 C207.308488,186.287669 207.308488,186.227481 207.308488,186.173981 C207.308488,184.843169 208.385175,183.699606 209.715988,183.699606 Z M164.443619,177.448131 C165.654892,177.762165 166.417813,178.911486 166.220307,180.119155 L166.189056,180.276944 L163.808306,179.862319 L161.514494,179.133381 C161.882306,177.882819 163.206431,177.113756 164.443619,177.448131 Z M207.945138,172.225194 C208.680763,173.335319 208.386513,174.833319 207.276388,175.562256 C206.86845,175.836444 206.400325,175.970194 205.945575,175.970194 C205.223325,175.970194 204.523868,175.651093 204.05234,175.054971 L203.939325,174.900194 L206.97545,172.800319 L207.945138,172.225194 Z M207.903006,172.161662 L206.973444,172.796975 L205.870006,173.45235 L207.903006,172.161662 Z M172.7408,167.04305 C173.630238,168.026112 173.549988,169.550862 172.560238,170.4403 C172.092113,170.8683 171.490238,171.075612 170.888363,171.075612 C170.232988,171.075612 169.577613,170.821487 169.116175,170.30655 C168.265409,169.359833 168.252893,167.966456 169.119597,167.068688 L169.243238,166.949425 L169.34355,166.862487 C170.3333,165.97305 171.851363,166.0533 172.7408,167.04305 Z M196.930825,162.782444 C198.087763,163.350881 198.636138,164.741881 198.1212,165.925569 C197.726638,166.828381 196.86395,167.390131 195.941075,167.390131 C195.716375,167.390131 195.487395,167.355891 195.260983,167.287411 L195.091763,167.229631 L195.840763,164.929131 L196.930825,162.782444 Z M185.296581,162.815881 C185.483831,164.126631 184.567644,165.350444 183.256894,165.537694 C183.136519,165.551069 183.022831,165.557756 182.909144,165.557756 C181.725456,165.557756 180.642081,164.708444 180.468206,163.518069 C180.274269,162.207319 181.110206,160.996881 182.420956,160.789569 C182.427644,160.789569 182.568081,160.769506 182.574769,160.769506 C183.885519,160.582256 185.109331,161.498444 185.296581,162.815881 Z M109.50915,83.7000812 C123.74015,83.7000812 135.3229,95.2761437 135.3229,109.513831 C135.3229,123.744831 123.74015,135.327581 109.50915,135.327581 C95.27815,135.327581 83.6954,123.744831 83.6954,109.513831 C83.6954,95.2761437 95.27815,83.7000812 109.50915,83.7000812 Z M209.720669,83.59375 C210.998249,83.59375 212.041627,84.5860252 212.123053,85.8428249 L212.128169,86.00125 L212.128169,132.81375 C212.128169,134.09133 211.135894,135.134708 209.879094,135.216135 L209.720669,135.22125 L162.908169,135.22125 C161.630589,135.22125 160.58721,134.228975 160.505784,132.972175 L160.500669,132.81375 L160.500669,86.00125 C160.500669,84.72367 161.492944,83.6802916 162.749744,83.5988655 L162.908169,83.59375 L209.720669,83.59375 Z M30.1733313,88.143925 C31.0360188,86.6526125 33.4836438,86.6526125 34.3463313,88.143925 L34.3463313,88.143925 L57.5118313,128.268925 C57.9398313,129.011237 57.9398313,129.934112 57.5118313,130.676425 C57.0838313,131.418737 56.2880188,131.880175 55.4253313,131.880175 L55.4253313,131.880175 L9.09433125,131.880175 C8.23833125,131.880175 7.44251875,131.418737 7.01451875,130.676425 C6.57983125,129.934112 6.57983125,129.011237 7.00783125,128.268925 L7.00783125,128.268925 Z M109.50915,88.5150812 C97.9330875,88.5150812 88.5104,97.9310812 88.5104,109.513831 C88.5104,121.089894 97.9330875,130.512581 109.50915,130.512581 C121.085213,130.512581 130.5079,121.089894 130.5079,109.513831 C130.5079,97.9310812 121.085213,88.5150812 109.50915,88.5150812 Z M207.313169,88.40875 L165.315669,88.40875 L165.315669,130.40625 L207.313169,130.40625 L207.313169,88.40875 Z M32.2598313,94.162675 L13.2673313,127.065175 L51.2590188,127.065175 L32.2598313,94.162675 Z M32.50125,6.68950625 C46.73225,6.68950625 58.315,18.2655687 58.315,32.5032562 C58.315,46.7342562 46.73225,58.3170062 32.50125,58.3170062 C18.27025,58.3170062 6.6875,46.7342562 6.6875,32.5032562 C6.6875,18.2655687 18.27025,6.68950625 32.50125,6.68950625 Z M132.814419,6.6875 C134.091999,6.6875 135.135377,7.6797752 135.216803,8.93657494 L135.221919,9.095 L135.221919,55.9075 C135.221919,57.18508 134.229644,58.2284584 132.972844,58.3098845 L132.814419,58.315 L86.0019188,58.315 C84.7243388,58.315 83.6809604,57.3227248 83.5995342,56.0659251 L83.5944188,55.9075 L83.5944188,9.095 C83.5944188,7.81742 84.586694,6.7740416 85.8434937,6.69261546 L86.0019188,6.6875 L132.814419,6.6875 Z M32.50125,11.5045062 C20.9251875,11.5045062 11.5025,20.9205062 11.5025,32.5032562 C11.5025,44.0793187 20.9251875,53.5020062 32.50125,53.5020062 C44.0773125,53.5020062 53.5,44.0793187 53.5,32.5032562 C53.5,20.9205062 44.0773125,11.5045062 32.50125,11.5045062 Z M130.406919,11.5025 L88.4094188,11.5025 L88.4094188,53.5 L130.406919,53.5 L130.406919,11.5025 Z M188.548184,7.74976479 L188.638994,7.893925 L211.804494,48.018925 C212.232494,48.7612375 212.232494,49.6841125 211.804494,50.426425 C211.405027,51.11925 210.685155,51.5674017 209.88955,51.624076 L209.717994,51.630175 L163.386994,51.630175 C162.530994,51.630175 161.735181,51.1687375 161.307181,50.426425 C160.903543,49.7371348 160.874712,48.8921555 161.215333,48.1806241 L161.300494,48.018925 L184.465994,7.893925 C185.299925,6.45232292 187.621141,6.40426951 188.548184,7.74976479 Z" transform="translate(-445.000000, -56.000000) translate(439.000000, 50.000000)"/></svg>
